<?xml version="1.0" encoding="utf-8"?>
<!-- Generator: Adobe Illustrator 27.4.1, SVG Export Plug-In . SVG Version: 6.00 Build 0)  -->
<svg version="1.1" id="Layer_1" xmlns="http://www.w3.org/2000/svg" xmlns:xlink="http://www.w3.org/1999/xlink" x="0px" y="0px"
	 viewBox="0 0 31.9 32" style="enable-background:new 0 0 31.9 32;" xml:space="preserve">
<style type="text/css">
	.st0{fill:url(#SVGID_1_);}
	.st1{fill:#800080;}
	.st2{opacity:0.3;}
	.st3{fill:#000072;}
	.st4{opacity:0.55;}
	.st5{fill:#FFFFFF;}
	.st6{fill:#19AFF9;}
	.st7{opacity:0.65;}
	.st8{fill:#262F6A;}
	.st9{fill:#B5B4BF;}
	.st10{opacity:0.25;}
	.st11{fill:#976CFF;}
	.st12{fill:#FFBE06;}
	.st13{fill:#FE4A27;}
	.st14{fill:#FFDC9C;}
	.st15{fill:#390075;}
</style>
<g>
	<g>
		<linearGradient id="SVGID_1_" gradientUnits="userSpaceOnUse" x1="4.4937" y1="15.5148" x2="28.8369" y2="15.5148">
			<stop  offset="0" style="stop-color:#FFEA83"/>
			<stop  offset="8.333001e-02" style="stop-color:#FFDD35"/>
			<stop  offset="1" style="stop-color:#FFA800"/>
		</linearGradient>
		<circle class="st0" cx="16.7" cy="15.5" r="12.2"/>
	</g>
	<g>
		<g>
			<path class="st1" d="M26.2,9.7l-3.1,13.1l-0.4,1.7l-0.6,2.7c-0.3,1.3-1.6,2-2.8,1.7L8.4,26.3c-1.3-0.3-2-1.6-1.7-2.8L10,9.7
				L10.8,6c0-0.1,0.1-0.3,0.1-0.4c0.4-1,1.6-1.6,2.7-1.3l10.8,2.6C25.8,7.2,26.5,8.4,26.2,9.7z"/>
		</g>
		<g class="st2">
			<path class="st3" d="M26.2,9.6l-3.1,13.1l-0.4,1.7l-0.6,2.7c-0.3,1.3-1.6,2-2.8,1.7L8.4,26.2c-0.7-0.2-1.3-0.7-1.6-1.3
				C6.9,25,6.9,25,7,25.1c-0.1-0.2,0-0.5,0-0.5c2.3-0.5,3.6-2.8,3.6-2.8l1.2,1.9l7.8,1.8l-8-1.2c-0.8,1.1-2,1.4-2.7,1.4l10.2,2.4
				c1.3,0.3,2.5-0.5,2.8-1.7l0.6-2.7l0.4-1.7L25.8,9c0.1-0.5,0.1-1-0.1-1.5C26.2,8.1,26.4,8.9,26.2,9.6z"/>
		</g>
		<g class="st4">
			<path class="st5" d="M26,8c-0.3-0.3-0.7-0.6-1.2-0.7L14,4.7c-1.3-0.3-2.5,0.5-2.8,1.7L7,23.9c-0.1,0.6,0,1.2,0.3,1.7
				c-0.5-0.6-0.7-1.3-0.5-2.1L10.9,6c0.3-1.3,1.6-2,2.8-1.7l10.8,2.6C25.2,7,25.7,7.4,26,8z"/>
		</g>
		<g>
			<path class="st3" d="M19.8,29.1c-0.2,0-0.4,0-0.6-0.1L8.4,26.5c-1.4-0.3-2.2-1.7-1.9-3.1L10.6,6c0.2-0.7,0.6-1.2,1.1-1.6
				c0.6-0.4,1.3-0.5,1.9-0.3l10.8,2.6c0.7,0.2,1.2,0.6,1.6,1.1c0.4,0.6,0.5,1.3,0.3,1.9l-4.1,17.4C22,28.3,21,29.1,19.8,29.1z
				 M19.3,28.7c1.2,0.3,2.3-0.4,2.6-1.6l4.1-17.4c0.1-0.6,0-1.1-0.3-1.6c-0.3-0.5-0.8-0.8-1.3-1L13.6,4.5c-0.6-0.1-1.1,0-1.6,0.3
				c-0.5,0.3-0.8,0.8-1,1.3L6.9,23.5c-0.3,1.2,0.4,2.3,1.6,2.6L19.3,28.7z"/>
		</g>
		<g>
			<path class="st6" d="M10.9,19.6c0,2.9-2.4,5.3-5.3,5.3c-0.5,0-1-0.1-1.5-0.2h0l-3.4,1L1.6,23c-0.8-0.9-1.3-2.1-1.3-3.4
				c0-2.9,2.4-5.3,5.3-5.3S10.9,16.7,10.9,19.6z"/>
		</g>
		<g class="st7">
			<path class="st5" d="M7.9,14.8c-0.5-0.2-1.1-0.3-1.7-0.3c-2.9,0-5.3,2.4-5.3,5.3c0,1.3,0.5,2.5,1.3,3.4l-0.8,2.2l-0.7,0.2L1.6,23
				c-0.8-0.9-1.3-2.1-1.3-3.4c0-2.9,2.4-5.3,5.3-5.3C6.5,14.3,7.2,14.5,7.9,14.8z"/>
		</g>
		<g class="st2">
			<path class="st3" d="M10.9,19.6c0,2.9-2.4,5.3-5.3,5.3c-0.5,0-1-0.1-1.5-0.2h0l-3.4,1l0.3-1l2.7-0.9h0c0.5,0.1,1,0.2,1.5,0.2
				c2.9-0.1,5.2-2.6,5-5.5c0-0.8-0.2-1.6-0.6-2.2C10.5,17.1,10.9,18.3,10.9,19.6z"/>
		</g>
		<g>
			<path class="st3" d="M0.7,25.8c-0.1,0-0.1,0-0.1-0.1c0-0.1-0.1-0.1,0-0.2l0.9-2.5c-0.8-1-1.2-2.2-1.2-3.5c0-3,2.5-5.5,5.5-5.5
				c3,0,5.5,2.5,5.5,5.5c0,3-2.5,5.5-5.5,5.5c-0.5,0-1-0.1-1.5-0.2L0.7,25.8C0.7,25.8,0.7,25.8,0.7,25.8z M5.7,14.5
				c-2.8,0-5.1,2.3-5.1,5.1c0,1.2,0.4,2.4,1.2,3.3c0,0.1,0.1,0.1,0,0.2L1,25.3l3.1-0.9c0,0,0.1,0,0.1,0c0.5,0.1,1,0.2,1.5,0.2
				c2.8,0,5.1-2.3,5.1-5.1C10.7,16.8,8.5,14.5,5.7,14.5z"/>
		</g>
		<g>
			<path class="st5" d="M12.3,6.6L9.2,19.7l2.4,3.9l8.7,2.1c0.3,0.1,0.7-0.1,0.8-0.5l3.7-15.7L12.3,6.6z"/>
			<path class="st3" d="M20.4,25.7c-0.1,0-0.1,0-0.2,0l-8.7-2.1l-2.4-3.9l0,0l3.1-13.1l0,0l12.5,3l0,0L21,25.2
				c0,0.2-0.1,0.3-0.3,0.4C20.6,25.7,20.5,25.7,20.4,25.7z M11.6,23.6l8.7,2.1c0.2,0,0.3,0,0.5-0.1c0.1-0.1,0.2-0.2,0.3-0.4
				l3.7-15.6L12.3,6.6L9.2,19.7L11.6,23.6z"/>
		</g>
		<g>
			<path class="st3" d="M20.4,25.9c-0.1,0-0.1,0-0.2,0l-8.7-2.1c-0.1,0-0.1,0-0.1-0.1L9,19.8c0,0,0-0.1,0-0.1l3.1-13.1
				c0-0.1,0-0.1,0.1-0.1c0,0,0.1,0,0.1,0l12.5,3c0.1,0,0.1,0,0.1,0.1c0,0,0,0.1,0,0.1l-3.7,15.7c-0.1,0.2-0.2,0.4-0.4,0.5
				C20.7,25.9,20.5,25.9,20.4,25.9z M11.7,23.5l8.6,2c0.1,0,0.2,0,0.3-0.1s0.2-0.2,0.2-0.3l3.7-15.5L12.4,6.8l-3,12.8L11.7,23.5z"/>
		</g>
		<g>
			<path class="st3" d="M11.6,23.8c-0.1,0-0.1,0-0.2-0.1L9,19.8c0-0.1,0-0.1,0-0.2c0-0.1,0.1-0.1,0.2-0.1l2.3,0.6
				c0.3,0.1,0.5,0.2,0.6,0.5c0.1,0.2,0.2,0.5,0.1,0.8l-0.6,2.3C11.7,23.8,11.7,23.8,11.6,23.8C11.6,23.8,11.6,23.8,11.6,23.8z
				 M9.6,20l1.9,3.2l0.5-1.9c0-0.2,0-0.4-0.1-0.5c-0.1-0.2-0.2-0.3-0.4-0.3L9.6,20z"/>
		</g>
		<g class="st2">
			<path class="st8" d="M9.1,19.7l2.4,3.9l0.6-2.3c0.1-0.5-0.2-0.9-0.6-1L9.1,19.7z"/>
			<path class="st3" d="M11.5,23.7l-2.5-4l2.4,0.6c0.2,0.1,0.4,0.2,0.5,0.4c0.1,0.2,0.2,0.4,0.1,0.7L11.5,23.7z M9.2,19.8l2.3,3.8
				l0.5-2.3c0.1-0.2,0-0.4-0.1-0.6c-0.1-0.2-0.3-0.3-0.5-0.4L9.2,19.8z"/>
		</g>
		<g class="st2">
			<path class="st3" d="M13.6,22.5L13.2,24l-0.8-0.2l-0.8-0.2l0.2-0.8l0.4-1.5l0.8,0.2C13.4,21.6,13.7,22,13.6,22.5z"/>
		</g>
		<g class="st2">
			
				<rect x="11.8" y="8.5" transform="matrix(-0.9729 -0.2311 0.2311 -0.9729 33.8283 22.2455)" class="st3" width="12.7" height="1.3"/>
		</g>
		<g>
			<path class="st9" d="M25.1,8.5c-0.3-0.4-0.7-0.8-1.2-0.9l-1.3-0.3c-1.5-0.4-2-1.1-1.9-2.7c0.1-0.7-0.3-1.4-1-1.5
				C19,3,18.3,3.3,18.1,3.9c0,0,0,0,0,0c-0.6,1.6-1.4,2-2.9,1.6l-1.2-0.3c-1.1-0.3-2.1,0.4-2.4,1.5l13.8,3.3
				C25.4,9.5,25.3,9,25.1,8.5z M19.1,5.5c-0.4-0.1-0.6-0.4-0.5-0.8c0.1-0.4,0.4-0.6,0.8-0.5C19.8,4.3,20,4.6,19.9,5
				C19.8,5.4,19.5,5.6,19.1,5.5z"/>
			<path class="st3" d="M25.3,10.1L25.3,10.1L11.5,6.8l0,0c0.3-1.1,1.3-1.8,2.4-1.5l1.2,0.3c1.5,0.4,2.3-0.1,2.9-1.6l0,0
				c0.3-0.6,0.9-1,1.6-0.8c0.7,0.2,1.2,0.9,1.1,1.6c-0.1,1.6,0.4,2.3,1.9,2.7l1.3,0.3c0.5,0.1,1,0.4,1.3,0.9v0
				C25.4,9,25.5,9.5,25.3,10.1L25.3,10.1z M11.5,6.7L25.3,10c0.1-0.5,0-1-0.2-1.5v0c-0.3-0.4-0.7-0.8-1.2-0.9l-1.3-0.3
				C21,7,20.5,6.3,20.7,4.7c0.1-0.7-0.3-1.4-1-1.5C19,3,18.3,3.3,18.1,3.9l0,0c-0.6,1.6-1.4,2-3,1.6l-1.2-0.3
				C12.8,5.1,11.8,5.7,11.5,6.7z M19.2,5.5c-0.1,0-0.1,0-0.2,0c-0.2,0-0.3-0.2-0.4-0.3c-0.1-0.2-0.1-0.3-0.1-0.5
				c0.1-0.4,0.5-0.6,0.8-0.5C19.8,4.3,20,4.6,19.9,5C19.8,5.3,19.6,5.5,19.2,5.5z M19.2,4.2c-0.3,0-0.6,0.2-0.6,0.5
				c0,0.2,0,0.3,0.1,0.5c0.1,0.1,0.2,0.2,0.4,0.3c0.3,0.1,0.7-0.1,0.8-0.5c0.1-0.3-0.1-0.7-0.5-0.8C19.3,4.2,19.3,4.2,19.2,4.2z"/>
		</g>
		<g class="st4">
			<path class="st5" d="M19.9,4.6c0.1,0.1,0.1,0.3,0,0.4c-0.1,0.4-0.4,0.6-0.8,0.5c-0.1,0-0.1,0-0.2-0.1c0.1,0.2,0.2,0.3,0.5,0.4
				c0.4,0.1,0.7-0.1,0.8-0.5C20.2,5,20.1,4.7,19.9,4.6z M19.6,3.1C19,3,18.3,3.3,18.1,3.9c0,0,0,0,0,0c-0.6,1.6-1.4,2-2.9,1.6
				l-1.2-0.3c-1.1-0.3-2.1,0.4-2.4,1.5l0.3,0.1c0.3-0.9,1.3-1.5,2.3-1.3l1.2,0.3c1.5,0.4,2.3-0.1,2.9-1.6c0,0,0,0,0,0
				c0.2-0.6,0.9-1,1.6-0.8c0.2,0.1,0.4,0.2,0.6,0.3C20.3,3.4,20,3.2,19.6,3.1z"/>
		</g>
		<g class="st10">
			<path class="st5" d="M20.4,7.7c0,0.2-0.9,0.2-1.8,0C17.7,7.4,17,7.1,17,6.8c0-0.2,0.8,0,1.8,0.2C19.7,7.3,20.5,7.5,20.4,7.7z"/>
		</g>
		<g>
			<g>
				<path class="st11" d="M5,20.5c0-0.4,0.1-0.8,0.5-1.4c0.5-0.6,0.6-1,0.6-1.5c0-0.5-0.2-0.6-0.5-0.6c-0.3,0-0.5,0.2-0.5,0.6v0.5
					c0,0.1-0.1,0.2-0.2,0.2H4.3c-0.1,0-0.2-0.1-0.2-0.2v-0.4c0-1,0.5-1.6,1.5-1.6s1.5,0.6,1.5,1.6c0,0.6-0.2,1-0.7,1.7
					c-0.4,0.5-0.5,0.9-0.5,1.2v0.1c0,0.2-0.1,0.3-0.3,0.3H5.3c-0.2,0-0.3-0.1-0.3-0.3V20.5z M5.2,21.6h0.4c0.1,0,0.3,0.1,0.3,0.3
					v0.4c0,0.1-0.1,0.3-0.3,0.3H5.2c-0.1,0-0.3-0.1-0.3-0.3v-0.4C5,21.8,5.1,21.6,5.2,21.6z"/>
			</g>
		</g>
		<g class="st7">
			<g>
				<path class="st5" d="M5.6,16.1c-1,0-1.5,0.6-1.5,1.6v0.4c0,0.1,0.1,0.2,0.2,0.2h0.2c0,0-0.1-0.1-0.1-0.2v-0.4
					c0-1,0.5-1.6,1.5-1.6c0,0,0.1,0,0.1,0C5.9,16.1,5.8,16.1,5.6,16.1z M5.9,19.2c0.5-0.6,0.6-1,0.6-1.5c0-0.5-0.2-0.6-0.5-0.6
					c0,0-0.1,0-0.1,0c0.2,0.1,0.2,0.3,0.2,0.6c0,0.5-0.1,0.9-0.6,1.5C5.1,19.7,5,20.1,5,20.5v0.1c0,0.2,0.1,0.3,0.3,0.3h0.2
					c-0.1-0.1-0.1-0.1-0.1-0.2v-0.1C5.4,20.2,5.5,19.8,5.9,19.2z M5.6,21.7h0.3C5.8,21.7,5.7,21.6,5.6,21.7l-0.3-0.1
					c-0.2,0-0.3,0.1-0.3,0.3v0.4c0,0.1,0.1,0.3,0.3,0.3h0.2c-0.1,0-0.1-0.1-0.1-0.2V22C5.3,21.8,5.4,21.7,5.6,21.7z"/>
			</g>
		</g>
		<g>
			<g>
				<path class="st3" d="M5.7,22.8H5.2c-0.3,0-0.5-0.2-0.5-0.5v-0.4c0-0.3,0.2-0.5,0.5-0.5h0.4c0.3,0,0.5,0.2,0.5,0.5v0.4
					C6.1,22.6,5.9,22.8,5.7,22.8z M5.2,21.8C5.2,21.8,5.2,21.9,5.2,21.8l-0.1,0.5c0,0,0,0.1,0.1,0.1h0.4c0,0,0.1,0,0.1-0.1v-0.4
					c0,0,0-0.1-0.1-0.1H5.2z M5.6,21.1H5.3c-0.3,0-0.5-0.2-0.5-0.5v-0.1c0-0.4,0.1-0.8,0.5-1.5c0.5-0.6,0.5-1,0.5-1.4
					c0-0.4-0.2-0.4-0.3-0.4c-0.2,0-0.3,0-0.3,0.4v0.5c0,0.2-0.2,0.4-0.4,0.4H4.3c-0.2,0-0.4-0.2-0.4-0.4v-0.4c0-1.2,0.6-1.8,1.7-1.8
					c1.1,0,1.7,0.7,1.7,1.8c0,0.6-0.2,1.1-0.7,1.8c-0.4,0.5-0.5,0.8-0.5,1.1v0.1C6.1,20.9,5.9,21.1,5.6,21.1z M5.6,16.8
					c0.3,0,0.7,0.1,0.7,0.8c0,0.6-0.2,1-0.6,1.6c-0.4,0.5-0.5,0.9-0.5,1.3v0.1c0,0,0,0.1,0.1,0.1h0.3c0,0,0.1,0,0.1-0.1v-0.1
					c0-0.4,0.2-0.7,0.6-1.3c0.5-0.6,0.6-1.1,0.6-1.6c0-1-0.4-1.4-1.3-1.4c-0.9,0-1.3,0.5-1.3,1.4v0.4c0,0,0,0,0,0h0.5c0,0,0,0,0,0
					v-0.5C4.9,16.9,5.3,16.8,5.6,16.8z"/>
			</g>
		</g>
		<g class="st10">
			<path class="st5" d="M3.1,20.2c0.1,0.9,0.2,1.6-0.4,1.7s-1.1-0.6-1.2-1.5c-0.1-0.9,0.3-1.6,0.9-1.7C3,18.6,3,19.3,3.1,20.2z"/>
		</g>
	</g>
	<g>
		<g>
			<path class="st12" d="M30.5,23.9l-5.8-7.4c-0.1-0.1-0.2-0.2-0.2-0.3l0,0c-0.2-0.2-0.4-0.3-0.7-0.4l-1.5-0.5l-0.9-0.3
				c-0.3-0.1-0.5,0.1-0.5,0.4l0.1,0.9l0.1,1.6c0,0.3,0.1,0.5,0.2,0.7l0,0c0.1,0.1,0.1,0.3,0.2,0.4l5.8,7.3c0.7,0.9,2.1,1.1,3,0.4
				c0.4-0.4,0.7-0.9,0.8-1.4C31,24.9,30.9,24.4,30.5,23.9z"/>
		</g>
		<g>
			<path class="st13" d="M30.5,23.9L30,23.2l-3.3,2.6l0.5,0.6c0.7,0.9,2.1,1.1,3,0.4c0.4-0.4,0.7-0.9,0.8-1.4
				C31,24.9,30.9,24.4,30.5,23.9z"/>
			<path class="st3" d="M28.9,27.3c-0.1,0-0.2,0-0.3,0c-0.6-0.1-1.1-0.4-1.5-0.8l-0.5-0.7l3.3-2.6l0.5,0.7c0.4,0.4,0.5,1,0.4,1.6
				c-0.1,0.6-0.3,1.1-0.8,1.4C29.8,27.2,29.4,27.3,28.9,27.3z M26.7,25.8l0.5,0.6c0.3,0.4,0.9,0.7,1.4,0.8c0.6,0.1,1.1-0.1,1.5-0.4
				c0.4-0.3,0.7-0.8,0.8-1.4c0.1-0.6-0.1-1.1-0.4-1.5L30,23.3L26.7,25.8z"/>
		</g>
		<g>
			<path class="st14" d="M24.5,16.3L24.5,16.3c-0.2-0.2-0.4-0.3-0.7-0.4l-1.5-0.5l-0.9-0.3c-0.3-0.1-0.5,0.1-0.5,0.4l0.1,0.9
				l0.1,1.6c0,0.3,0.1,0.5,0.2,0.7l0,0c0.4,0.3,1.1,0.2,1.2-0.6c0.8,0.3,1.4-0.2,1.3-1C24.2,17.4,24.7,16.8,24.5,16.3z"/>
			<path class="st15" d="M21.7,18.9c-0.2,0-0.3,0-0.5-0.1l0,0c-0.1-0.2-0.2-0.5-0.2-0.7l-0.2-2.6c0-0.1,0-0.3,0.2-0.4
				c0.1-0.1,0.3-0.1,0.4-0.1l2.4,0.8c0.3,0.1,0.5,0.2,0.7,0.4l0,0c0.1,0.3,0.1,0.6-0.1,0.8c-0.2,0.2-0.4,0.2-0.7,0.2
				c0.1,0.4-0.1,0.7-0.3,0.9c-0.2,0.2-0.6,0.2-1,0.1c0,0.3-0.2,0.5-0.4,0.6C21.9,18.9,21.8,18.9,21.7,18.9z M21.2,18.7
				c0.3,0.1,0.6,0.2,0.8,0c0.2-0.1,0.3-0.3,0.3-0.6l0,0l0,0c0.4,0.2,0.7,0.1,1,0c0.2-0.2,0.3-0.5,0.3-0.9l0,0l0,0
				c0.3,0.1,0.5,0,0.7-0.1c0.2-0.2,0.2-0.5,0.1-0.8c-0.2-0.2-0.4-0.3-0.7-0.4l-2.4-0.8c-0.1,0-0.2,0-0.3,0.1
				c-0.1,0.1-0.1,0.2-0.1,0.3L21,18C21,18.3,21.1,18.5,21.2,18.7z"/>
		</g>
		<g class="st2">
			<path class="st3" d="M30.5,23.9l-5.8-7.4c-0.1-0.1-0.2-0.2-0.2-0.3l0,0c-0.2-0.2-0.4-0.3-0.7-0.4l-1.5-0.5l-0.9-0.3
				c-0.3-0.1-0.5,0.1-0.5,0.4l0,0.2l0.7,0.2l1.5,0.5c0.3,0.1,0.5,0.2,0.7,0.4l0,0c0.1,0.1,0.2,0.2,0.2,0.3l5.8,7.4
				c0.4,0.5,0.5,1,0.4,1.5c0,0.4-0.2,0.8-0.5,1.1c0.1-0.1,0.3-0.1,0.4-0.2c0.4-0.4,0.7-0.9,0.8-1.4C31,24.9,30.9,24.4,30.5,23.9z"/>
		</g>
		<g class="st7">
			<path class="st5" d="M21.3,15.1C21.3,15.1,21.3,15.1,21.3,15.1c-0.2-0.1-0.5,0.1-0.5,0.4l0.1,0.9l0.1,1.6c0,0.3,0.1,0.5,0.2,0.7
				l0,0c0.1,0.1,0.1,0.3,0.2,0.4l5.8,7.3c0.7,0.9,2.1,1.1,3,0.4c0.1-0.1,0.1-0.1,0.2-0.2c-0.9,0.5-2.1,0.3-2.7-0.5l-3-3.8
				c0-0.9-0.8-2.1-1.7-2.2l-1.1-1.3c-0.1-0.1-0.2-0.2-0.2-0.4l0,0c-0.1-0.2-0.2-0.5-0.2-0.7l-0.1-1.6L21.3,15.1z"/>
		</g>
		<g>
			<path class="st3" d="M28.9,27.5c-0.1,0-0.2,0-0.3,0c-0.6-0.1-1.2-0.4-1.6-0.9l-5.8-7.3c-0.3-0.3-0.4-0.8-0.5-1.2l-0.2-2.6
				c0-0.2,0.1-0.4,0.2-0.5c0.2-0.1,0.3-0.2,0.5-0.1l2.4,0.8c0.4,0.1,0.8,0.4,1.1,0.7l5.8,7.4c0.4,0.5,0.5,1.1,0.5,1.7
				c-0.1,0.6-0.4,1.1-0.8,1.5C29.9,27.3,29.4,27.5,28.9,27.5z M21.2,15.3c0,0-0.1,0-0.1,0c-0.1,0-0.1,0.1-0.1,0.2l0.2,2.6
				c0,0.4,0.2,0.7,0.4,1l5.8,7.3c0.3,0.4,0.8,0.7,1.3,0.7c0.5,0.1,1-0.1,1.4-0.4c0.4-0.3,0.6-0.8,0.7-1.3c0.1-0.5-0.1-1-0.4-1.4
				l-5.8-7.4c-0.2-0.3-0.5-0.5-0.9-0.6L21.2,15.3C21.2,15.3,21.2,15.3,21.2,15.3z"/>
		</g>
		<g>
			<path class="st9" d="M29,22.2l-3.1,2.4c-0.1,0.1-0.2,0.3-0.1,0.5l0.5,0.6c0.1,0.1,0.3,0.2,0.5,0.1l3.1-2.4
				c0.1-0.1,0.2-0.3,0.1-0.5l-0.5-0.6C29.3,22.1,29.1,22,29,22.2z"/>
			<path class="st3" d="M26.6,25.9C26.6,25.9,26.6,25.8,26.6,25.9c-0.1,0-0.2-0.1-0.3-0.1l-0.5-0.6c-0.1-0.1-0.1-0.2-0.1-0.3
				c0-0.1,0.1-0.2,0.1-0.2l3.1-2.4c0.1-0.1,0.2-0.1,0.3-0.1c0.1,0,0.2,0.1,0.2,0.1l0.5,0.6c0.1,0.1,0.1,0.2,0.1,0.3
				c0,0.1-0.1,0.2-0.1,0.2l-3.1,2.4C26.8,25.8,26.7,25.9,26.6,25.9z M29.2,22.1c-0.1,0-0.1,0-0.2,0.1l-3.1,2.4
				c-0.1,0.1-0.1,0.1-0.1,0.2c0,0.1,0,0.2,0.1,0.2l0.5,0.6c0.1,0.1,0.1,0.1,0.2,0.1c0.1,0,0.2,0,0.2-0.1l3.1-2.4
				c0.1-0.1,0.1-0.1,0.1-0.2c0-0.1,0-0.2-0.1-0.2l-0.5-0.6C29.4,22.2,29.3,22.1,29.2,22.1C29.2,22.1,29.2,22.1,29.2,22.1z"/>
		</g>
		<g class="st2">
			<path class="st3" d="M29.9,22.9l-0.5-0.6c-0.1-0.1-0.3-0.2-0.5-0.1l-0.8,0.6c0.1-0.1,0.4-0.1,0.5,0.1l0.5,0.6
				c0.1,0.1,0.1,0.4-0.1,0.5l0.8-0.6C30,23.2,30.1,23,29.9,22.9z"/>
		</g>
		<g class="st7">
			<path class="st5" d="M26.3,24.3l-0.4,0.3c-0.1,0.1-0.2,0.3-0.1,0.5l0.5,0.6c0.1,0.1,0.3,0.2,0.5,0.1l0.4-0.3
				c-0.1,0.1-0.4,0.1-0.5-0.1l-0.5-0.6C26.1,24.6,26.1,24.4,26.3,24.3z"/>
		</g>
		<g>
			<path class="st3" d="M26.6,26C26.6,26,26.6,26,26.6,26c-0.2,0-0.3-0.1-0.4-0.2l-0.5-0.6c-0.1-0.1-0.1-0.2-0.1-0.4
				c0-0.1,0.1-0.3,0.2-0.3l3.1-2.4c0.1-0.1,0.2-0.1,0.4-0.1c0.1,0,0.3,0.1,0.3,0.2l0.5,0.6c0.1,0.1,0.1,0.2,0.1,0.4
				c0,0.1-0.1,0.3-0.2,0.3l-3.1,2.4C26.8,26,26.7,26,26.6,26z M29.2,22.3C29.2,22.3,29.1,22.3,29.2,22.3L29.2,22.3L26,24.7
				c0,0,0,0.1-0.1,0.1c0,0,0,0.1,0,0.1l0.5,0.6c0,0,0.1,0,0.1,0.1c0,0,0.1,0,0.1,0l3.1-2.4c0,0,0-0.1,0.1-0.1c0,0,0-0.1,0-0.1
				l-0.5-0.6C29.3,22.3,29.2,22.3,29.2,22.3C29.2,22.3,29.2,22.3,29.2,22.3z M29,22.2L29,22.2L29,22.2z"/>
		</g>
		<g>
			<path class="st3" d="M21.7,19.1c-0.2,0-0.4-0.1-0.6-0.2c0,0,0,0-0.1,0c-0.1-0.1-0.1-0.2,0-0.3c0.1-0.1,0.2-0.1,0.2,0
				c0.2,0.1,0.5,0.1,0.6,0c0.1-0.1,0.2-0.2,0.2-0.4c0-0.1,0-0.1,0.1-0.2c0.1,0,0.1,0,0.2,0c0.3,0.1,0.6,0.1,0.8,0
				c0.2-0.1,0.3-0.4,0.2-0.8c0-0.1,0-0.1,0.1-0.2c0.1,0,0.1-0.1,0.2,0c0.2,0.1,0.4,0,0.5-0.1c0.1-0.1,0.2-0.4,0.1-0.6
				c0-0.1,0-0.2,0.1-0.2c0.1-0.1,0.2-0.1,0.3,0l0,0c0,0,0,0,0,0c0.1,0.4,0.1,0.8-0.2,1c-0.2,0.2-0.4,0.3-0.6,0.3
				c0,0.4-0.1,0.7-0.4,0.9c-0.2,0.2-0.6,0.2-0.9,0.2c-0.1,0.2-0.2,0.4-0.4,0.5C22,19.1,21.8,19.1,21.7,19.1z"/>
		</g>
		<g>
			<path class="st3" d="M20.9,16.6c-0.1,0-0.2-0.1-0.2-0.2c0-0.1,0.1-0.2,0.2-0.2c0.6-0.1,1-0.4,1.2-0.9c0-0.1,0.2-0.1,0.3-0.1
				c0.1,0,0.1,0.2,0.1,0.3C22.1,16.1,21.6,16.5,20.9,16.6C20.9,16.6,20.9,16.6,20.9,16.6z"/>
		</g>
		<g>
			<path class="st3" d="M22.2,15.4l-0.9-0.3c-0.3-0.1-0.5,0.1-0.5,0.4l0.1,0.9C21.5,16.3,22,16,22.2,15.4z"/>
		</g>
	</g>
</g>
</svg>
